<svg width="12" height="10" viewBox="0 0 12 10" fill="none" xmlns="http://www.w3.org/2000/svg">
<path fill-rule="evenodd" clip-rule="evenodd" d="M11 8C11.5523 8 12 8.44772 12 9C12 9.55228 11.5523 10 11 10H1C0.447715 10 0 9.55228 0 9C0 8.44772 0.447715 8 1 8H11Z" fill="white"/>
<path fill-rule="evenodd" clip-rule="evenodd" d="M11 4C11.5523 4 12 4.44772 12 5C12 5.55228 11.5523 6 11 6H1C0.447715 6 0 5.55228 0 5C0 4.44772 0.447715 4 1 4H11Z" fill="white"/>
<path fill-rule="evenodd" clip-rule="evenodd" d="M11 0C11.5523 0 12 0.447715 12 1C12 1.55228 11.5523 2 11 2H1C0.447715 2 0 1.55228 0 1C0 0.447715 0.447715 0 1 0H11Z" fill="white"/>
</svg>
