<svg width="17" height="19" viewBox="0 0 17 19" fill="none" xmlns="http://www.w3.org/2000/svg">
<path d="M16.625 1.625V3.375C16.625 4.99945 15.9797 6.55737 14.831 7.70603C13.6824 8.85469 12.1245 9.5 10.5 9.5H9.625V10.375H14V16.5C14 16.9641 13.8156 17.4092 13.4874 17.7374C13.1592 18.0656 12.7141 18.25 12.25 18.25H5.25C4.78587 18.25 4.34075 18.0656 4.01256 17.7374C3.68437 17.4092 3.5 16.9641 3.5 16.5V10.375H7.875V7.75C7.875 6.12555 8.52031 4.56763 9.66897 3.41897C10.8176 2.27031 12.3755 1.625 14 1.625H16.625ZM3.0625 0.750002C4.11248 0.749151 5.14729 1.00059 6.07981 1.48314C7.01234 1.9657 7.81526 2.66524 8.421 3.52288C7.49644 4.73788 6.99713 6.22323 7 7.75V8.625H6.5625C4.82202 8.625 3.15282 7.9336 1.92211 6.70289C0.691404 5.47218 0 3.80299 0 2.0625V0.750002H3.0625Z" fill="white"/>
</svg>
